<?xml version="1.0" encoding="utf-8"?>
<!-- Generator: Adobe Illustrator 23.0.1, SVG Export Plug-In . SVG Version: 6.00 Build 0)  -->
<svg version="1.1" id="Layer_1" xmlns="http://www.w3.org/2000/svg" xmlns:xlink="http://www.w3.org/1999/xlink" x="0px" y="0px"
	 viewBox="0 0 300 300" style="enable-background:new 0 0 300 300;" xml:space="preserve">
<style type="text/css">
	.st0{fill:#EC6A5F;}
	.st1{fill:#B23F39;}
	.st2{display:none;}
	.st3{display:inline;fill:#F5BF4F;}
	.st4{display:inline;fill:#D39E40;}
	.st5{display:inline;fill:#62C654;}
	.st6{display:inline;fill:#479E38;}
</style>
<g>
	
		<ellipse transform="matrix(0.7071 -0.7071 0.7071 0.7071 -62.1321 150.0001)" class="st0" cx="150" cy="150" rx="145.1" ry="145.1"/>
	<path class="st1" d="M150,8.4c37.8,0,73.4,14.7,100.1,41.5c26.7,26.7,41.5,62.3,41.5,100.1s-14.7,73.4-41.5,100.1
		c-26.7,26.7-62.3,41.5-100.1,41.5s-73.4-14.7-100.1-41.5C23.1,223.4,8.4,187.8,8.4,150S23.1,76.6,49.9,49.9
		C76.6,23.1,112.2,8.4,150,8.4 M150,1.4C67.9,1.4,1.4,67.9,1.4,150S67.9,298.6,150,298.6S298.6,232.1,298.6,150S232.1,1.4,150,1.4
		L150,1.4z"/>
</g>
<g class="st2">
	
		<ellipse transform="matrix(0.7071 -0.7071 0.7071 0.7071 -62.1321 150.0001)" class="st3" cx="150" cy="150" rx="145.1" ry="145.1"/>
	<path class="st4" d="M150,8.4c37.8,0,73.4,14.7,100.1,41.5c26.7,26.7,41.5,62.3,41.5,100.1s-14.7,73.4-41.5,100.1
		c-26.7,26.7-62.3,41.5-100.1,41.5s-73.4-14.7-100.1-41.5C23.1,223.4,8.4,187.8,8.4,150S23.1,76.6,49.9,49.9
		C76.6,23.1,112.2,8.4,150,8.4 M150,1.4C67.9,1.4,1.4,67.9,1.4,150S67.9,298.6,150,298.6S298.6,232.1,298.6,150S232.1,1.4,150,1.4
		L150,1.4z"/>
</g>
<g class="st2">
	
		<ellipse transform="matrix(0.7071 -0.7071 0.7071 0.7071 -62.1321 150.0001)" class="st5" cx="150" cy="150" rx="145.1" ry="145.1"/>
	<path class="st6" d="M150,8.4c37.8,0,73.4,14.7,100.1,41.5c26.7,26.7,41.5,62.3,41.5,100.1s-14.7,73.4-41.5,100.1
		c-26.7,26.7-62.3,41.5-100.1,41.5s-73.4-14.7-100.1-41.5C23.1,223.4,8.4,187.8,8.4,150S23.1,76.6,49.9,49.9
		C76.6,23.1,112.2,8.4,150,8.4 M150,1.4C67.9,1.4,1.4,67.9,1.4,150S67.9,298.6,150,298.6S298.6,232.1,298.6,150S232.1,1.4,150,1.4
		L150,1.4z"/>
</g>
</svg>
