<?xml version="1.0" standalone="no"?>
<!DOCTYPE svg PUBLIC "-//W3C//DTD SVG 20010904//EN"
 "http://www.w3.org/TR/2001/REC-SVG-20010904/DTD/svg10.dtd">
<svg version="1.0" xmlns="http://www.w3.org/2000/svg"
 width="250.000000pt" height="250.000000pt" viewBox="0 0 250.000000 250.000000"
 preserveAspectRatio="xMidYMid meet">
<metadata>
Created by potrace 1.11, written by Peter Selinger 2001-2013
</metadata>
<g transform="translate(0.000000,250.000000) scale(0.100000,-0.100000)"
fill="#000000" stroke="none">
<path d="M250 2486 c-75 -28 -87 -35 -136 -79 -28 -26 -63 -70 -79 -104 l-30
-58 0 -995 0 -995 25 -50 c31 -64 111 -144 175 -175 l50 -25 972 -3 c967 -2
973 -2 1035 19 105 35 185 116 221 223 15 45 17 142 17 1001 0 844 -2 957 -16
1005 -35 118 -129 208 -249 240 -64 16 -1940 13 -1985 -4z m1235 -246 c394
-99 691 -410 766 -802 15 -80 20 -247 8 -318 -5 -30 -11 -70 -14 -88 -24 -151
-141 -364 -275 -499 -135 -137 -348 -254 -510 -279 -19 -3 -55 -10 -80 -14
-47 -9 -226 -6 -295 4 -266 41 -529 212 -680 441 -124 188 -177 372 -170 590
4 110 6 128 26 220 29 126 118 302 207 406 162 190 371 310 615 354 106 19
294 12 402 -15z"/>
<path d="M865 1531 c-94 -43 -131 -138 -85 -220 25 -43 63 -69 148 -102 75
-28 112 -59 112 -92 0 -65 -96 -81 -193 -33 -31 16 -58 27 -60 25 -2 -2 -15
-21 -30 -41 l-28 -37 38 -25 c126 -82 307 -69 374 26 15 21 24 50 27 87 6 93
-21 120 -211 207 -63 28 -73 40 -63 78 12 50 126 55 179 9 15 -15 19 -15 35 0
9 9 25 29 35 46 l17 29 -57 29 c-73 36 -177 42 -238 14z"/>
<path d="M1449 1541 c-46 -11 -115 -61 -143 -104 -82 -127 -67 -314 33 -414
76 -76 219 -93 335 -40 l56 26 -21 44 -21 44 -55 -22 c-75 -31 -157 -19 -202
29 -21 23 -53 97 -46 105 2 2 84 4 182 5 l178 1 3 66 c8 185 -126 302 -299
260z m138 -118 c12 -8 24 -22 28 -31 13 -31 23 -82 16 -83 -20 -4 -237 -5
-243 -2 -11 6 19 74 44 101 39 41 104 47 155 15z"/>
</g>
</svg>
